<svg version="1.1" id="Layer_1" xmlns="http://www.w3.org/2000/svg" xmlns:xlink="http://www.w3.org/1999/xlink" x="0px" y="0px"
	 width="100%" viewBox="0 0 592 544" enable-background="new 0 0 592 544" xml:space="preserve">
<path fill="#000000" opacity="1.000000" stroke="none" 
	d="
M295.446472,296.124695 
	C310.836090,289.503693 323.858215,299.510345 327.258057,309.465759 
	C331.116760,320.764648 325.883545,333.983521 314.640747,338.674652 
	C305.044037,342.678864 292.475372,341.067963 285.169159,328.985168 
	C279.194336,319.104248 281.620911,306.298157 290.954895,299.059845 
	C292.263550,298.045013 293.715912,297.215485 295.446472,296.124695 
z"/>
<path fill="#000000" opacity="1.000000" stroke="none" 
	d="
M262.627289,208.185791 
	C254.409607,221.820831 242.788666,225.860306 230.574738,219.612686 
	C219.825012,214.114029 215.021301,201.410538 219.524567,190.390320 
	C224.095306,179.204971 236.334305,173.297745 247.708603,176.787140 
	C259.580292,180.429138 266.521545,192.072372 263.909637,204.007065 
	C263.626373,205.301270 263.182739,206.560349 262.627289,208.185791 
z"/>
<path fill="#000000" opacity="1.000000" stroke="none" 
	d="
M378.130188,177.485275 
	C391.489075,184.043091 396.295654,198.105011 389.657745,210.249619 
	C383.442841,221.620239 368.702789,225.781921 357.866028,219.225632 
	C347.835632,213.157166 343.760254,200.556183 348.087158,190.210327 
	C352.622437,179.366302 365.840820,172.284286 378.130188,177.485275 
z"/>
</svg>